<svg xmlns="http://www.w3.org/2000/svg" xmlns:xlink="http://www.w3.org/1999/xlink" fill="currentColor" preserveAspectRatio="xMidYMid meet" height="64" width="64" viewBox="0 0 64 64" style="vertical-align: middle;"><g fill="none" fill-rule="evenodd" stroke-width="3"><path stroke="#90EB04" d="M22 42H0v-1.667C0 38.667 1.692 37 3.385 37h15.23C20.308 37 22 38.667 22 40.333V42zM4 37v-2.5c0-1.25.778-2.5 1.556-2.5h10.888C17.222 32 18 33.25 18 34.5V37" transform="translate(12 9)"></path><g stroke="#131CAA"><path d="M16.5 16.5L35 35" transform="translate(12 9) translate(9)"></path><path stroke-linecap="round" d="M20.485 11.295c2.286 2.286 6.096-1.524 3.81-3.81l-6.78-6.78c-2.286-2.286-6.096 1.524-3.81 3.81l6.78 6.78zM7.485 24.295c2.286 2.286 6.096-1.524 3.81-3.81l-6.78-6.78c-2.286-2.286-6.096 1.524-3.81 3.81l6.78 6.78zM20.596 11.61l-8.485 8.486m-7-7l8.485-8.485" transform="translate(12 9) translate(9)"></path></g></g></svg>